<mxfile host="app.diagrams.net" agent="Mozilla/5.0 (Windows NT 10.0; Win64; x64) AppleWebKit/537.36 (KHTML, like Gecko) Chrome/131.0.0.0 Safari/537.36 Edg/131.0.0.0" version="24.9.3">
  <diagram id="Ht1M8jgEwFfnCIfOTk4-" name="Page-1">
    <mxGraphModel dx="2946" dy="1107" grid="1" gridSize="10" guides="1" tooltips="1" connect="1" arrows="1" fold="1" page="1" pageScale="1" pageWidth="827" pageHeight="1169" math="0" shadow="0">
      <root>
        <mxCell id="0" />
        <mxCell id="1" parent="0" />
        <mxCell id="qJSmPJL1LaiND0N-NlER-1" style="edgeStyle=orthogonalEdgeStyle;rounded=0;orthogonalLoop=1;jettySize=auto;html=1;" edge="1" parent="1" source="jZVaUwOg5UY3L9NAnvdq-59" target="jZVaUwOg5UY3L9NAnvdq-93">
          <mxGeometry relative="1" as="geometry" />
        </mxCell>
        <mxCell id="jZVaUwOg5UY3L9NAnvdq-59" value="Actors" style="swimlane;fontSize=14;align=center;swimlaneFillColor=#f4f4f4;fillColor=#f4f4f4;startSize=33;container=1;pointerEvents=0;collapsible=0;recursiveResize=0;" parent="1" vertex="1">
          <mxGeometry x="20" y="394" width="160" height="162" as="geometry" />
        </mxCell>
        <mxCell id="jZVaUwOg5UY3L9NAnvdq-60" value="User" style="outlineConnect=0;fontColor=#232F3E;gradientColor=none;fillColor=#232F3E;strokeColor=none;dashed=0;verticalLabelPosition=bottom;verticalAlign=top;align=center;html=1;fontSize=12;fontStyle=0;aspect=fixed;pointerEvents=1;shape=mxgraph.aws4.user;labelBackgroundColor=none;" parent="jZVaUwOg5UY3L9NAnvdq-59" vertex="1">
          <mxGeometry x="42.5" y="55" width="78" height="78" as="geometry" />
        </mxCell>
        <mxCell id="qJSmPJL1LaiND0N-NlER-35" style="edgeStyle=orthogonalEdgeStyle;rounded=0;orthogonalLoop=1;jettySize=auto;html=1;" edge="1" parent="1" source="qJSmPJL1LaiND0N-NlER-36">
          <mxGeometry relative="1" as="geometry">
            <mxPoint x="100" y="390" as="targetPoint" />
            <Array as="points">
              <mxPoint x="101" y="180" />
            </Array>
          </mxGeometry>
        </mxCell>
        <mxCell id="jZVaUwOg5UY3L9NAnvdq-76" value="User Exists?" style="outlineConnect=0;fontColor=#232F3E;gradientColor=#945DF2;gradientDirection=north;fillColor=#5A30B5;strokeColor=#ffffff;dashed=0;verticalLabelPosition=bottom;verticalAlign=top;align=center;html=1;fontSize=12;fontStyle=0;aspect=fixed;shape=mxgraph.aws4.resourceIcon;resIcon=mxgraph.aws4.elasticsearch_service;labelBackgroundColor=none;" parent="1" vertex="1">
          <mxGeometry x="400" y="282" width="52" height="52" as="geometry" />
        </mxCell>
        <mxCell id="qJSmPJL1LaiND0N-NlER-16" style="edgeStyle=orthogonalEdgeStyle;rounded=0;orthogonalLoop=1;jettySize=auto;html=1;entryX=0.5;entryY=0;entryDx=0;entryDy=0;" edge="1" parent="1" source="jZVaUwOg5UY3L9NAnvdq-77" target="jZVaUwOg5UY3L9NAnvdq-59">
          <mxGeometry relative="1" as="geometry">
            <Array as="points">
              <mxPoint x="589" y="100" />
              <mxPoint x="100" y="100" />
            </Array>
          </mxGeometry>
        </mxCell>
        <mxCell id="jZVaUwOg5UY3L9NAnvdq-77" value="MySql DB Image" style="outlineConnect=0;fontColor=#232F3E;gradientColor=#4D72F3;gradientDirection=north;fillColor=#3334B9;strokeColor=#ffffff;dashed=0;verticalLabelPosition=bottom;verticalAlign=top;align=center;html=1;fontSize=12;fontStyle=0;aspect=fixed;shape=mxgraph.aws4.resourceIcon;resIcon=mxgraph.aws4.dynamodb;labelBackgroundColor=#ffffff;spacingTop=6;" parent="1" vertex="1">
          <mxGeometry x="720.0000000000002" y="70" width="78" height="78" as="geometry" />
        </mxCell>
        <mxCell id="qJSmPJL1LaiND0N-NlER-17" style="edgeStyle=orthogonalEdgeStyle;rounded=0;orthogonalLoop=1;jettySize=auto;html=1;" edge="1" parent="1" source="jZVaUwOg5UY3L9NAnvdq-93" target="qJSmPJL1LaiND0N-NlER-4">
          <mxGeometry relative="1" as="geometry" />
        </mxCell>
        <mxCell id="qJSmPJL1LaiND0N-NlER-18" value="" style="edgeStyle=orthogonalEdgeStyle;rounded=0;orthogonalLoop=1;jettySize=auto;html=1;" edge="1" parent="1" source="jZVaUwOg5UY3L9NAnvdq-93" target="qJSmPJL1LaiND0N-NlER-14">
          <mxGeometry relative="1" as="geometry" />
        </mxCell>
        <mxCell id="jZVaUwOg5UY3L9NAnvdq-93" value="API" style="outlineConnect=0;fontColor=#232F3E;gradientColor=none;fillColor=#232F3E;strokeColor=none;dashed=0;verticalLabelPosition=bottom;verticalAlign=top;align=center;html=1;fontSize=12;fontStyle=0;aspect=fixed;pointerEvents=1;shape=mxgraph.aws4.external_sdk;labelBackgroundColor=none;" parent="1" vertex="1">
          <mxGeometry x="253.00000000000023" y="436" width="68" height="78" as="geometry" />
        </mxCell>
        <mxCell id="qJSmPJL1LaiND0N-NlER-39" style="edgeStyle=orthogonalEdgeStyle;rounded=0;orthogonalLoop=1;jettySize=auto;html=1;" edge="1" parent="1" source="jZVaUwOg5UY3L9NAnvdq-96" target="jZVaUwOg5UY3L9NAnvdq-77">
          <mxGeometry relative="1" as="geometry">
            <Array as="points">
              <mxPoint x="759" y="151" />
            </Array>
          </mxGeometry>
        </mxCell>
        <mxCell id="qJSmPJL1LaiND0N-NlER-54" style="edgeStyle=orthogonalEdgeStyle;rounded=0;orthogonalLoop=1;jettySize=auto;html=1;" edge="1" parent="1" source="jZVaUwOg5UY3L9NAnvdq-96" target="qJSmPJL1LaiND0N-NlER-55">
          <mxGeometry relative="1" as="geometry">
            <mxPoint x="1050" y="307.9999999999998" as="targetPoint" />
          </mxGeometry>
        </mxCell>
        <mxCell id="jZVaUwOg5UY3L9NAnvdq-96" value="Docker Container" style="outlineConnect=0;fontColor=#232F3E;gradientColor=#4AB29A;gradientDirection=north;fillColor=#116D5B;strokeColor=#ffffff;dashed=0;verticalLabelPosition=bottom;verticalAlign=top;align=center;html=1;fontSize=12;fontStyle=0;aspect=fixed;shape=mxgraph.aws4.resourceIcon;resIcon=mxgraph.aws4.sagemaker;labelBackgroundColor=#ffffff;spacingTop=7;" parent="1" vertex="1">
          <mxGeometry x="720" y="268.99999999999983" width="78" height="78" as="geometry" />
        </mxCell>
        <mxCell id="jZVaUwOg5UY3L9NAnvdq-164" value="" style="group" parent="1" vertex="1" connectable="0">
          <mxGeometry x="357.00000000000006" y="462" width="21" height="26" as="geometry" />
        </mxCell>
        <mxCell id="jZVaUwOg5UY3L9NAnvdq-165" value="" style="rounded=0;whiteSpace=wrap;html=1;labelBackgroundColor=#ffffff;fontSize=14;align=center;strokeColor=none;" parent="jZVaUwOg5UY3L9NAnvdq-164" vertex="1">
          <mxGeometry width="21" height="26" as="geometry" />
        </mxCell>
        <mxCell id="jZVaUwOg5UY3L9NAnvdq-166" value="" style="outlineConnect=0;fontColor=#232F3E;gradientColor=none;fillColor=#B3B3B3;strokeColor=none;dashed=0;verticalLabelPosition=bottom;verticalAlign=top;align=center;html=1;fontSize=12;fontStyle=0;aspect=fixed;pointerEvents=1;shape=mxgraph.aws4.encrypted_data;labelBackgroundColor=#ffffff;" parent="jZVaUwOg5UY3L9NAnvdq-164" vertex="1">
          <mxGeometry width="21" height="26" as="geometry" />
        </mxCell>
        <mxCell id="qJSmPJL1LaiND0N-NlER-34" value="" style="edgeStyle=orthogonalEdgeStyle;rounded=0;orthogonalLoop=1;jettySize=auto;html=1;" edge="1" parent="1" source="qJSmPJL1LaiND0N-NlER-4" target="jZVaUwOg5UY3L9NAnvdq-76">
          <mxGeometry relative="1" as="geometry" />
        </mxCell>
        <mxCell id="qJSmPJL1LaiND0N-NlER-4" value="Create User" style="shape=ext;double=1;rounded=0;whiteSpace=wrap;html=1;" vertex="1" parent="1">
          <mxGeometry x="227" y="268" width="120" height="80" as="geometry" />
        </mxCell>
        <mxCell id="qJSmPJL1LaiND0N-NlER-29" value="" style="edgeStyle=orthogonalEdgeStyle;rounded=0;orthogonalLoop=1;jettySize=auto;html=1;" edge="1" parent="1" source="qJSmPJL1LaiND0N-NlER-12" target="jZVaUwOg5UY3L9NAnvdq-76">
          <mxGeometry relative="1" as="geometry" />
        </mxCell>
        <mxCell id="qJSmPJL1LaiND0N-NlER-19" style="edgeStyle=orthogonalEdgeStyle;rounded=0;orthogonalLoop=1;jettySize=auto;html=1;entryX=0.5;entryY=1;entryDx=0;entryDy=0;" edge="1" parent="1">
          <mxGeometry relative="1" as="geometry">
            <mxPoint x="450" y="522" as="sourcePoint" />
            <mxPoint x="100" y="563" as="targetPoint" />
            <Array as="points">
              <mxPoint x="450" y="583" />
              <mxPoint x="100" y="583" />
            </Array>
          </mxGeometry>
        </mxCell>
        <mxCell id="qJSmPJL1LaiND0N-NlER-21" value="" style="edgeStyle=orthogonalEdgeStyle;rounded=0;orthogonalLoop=1;jettySize=auto;html=1;" edge="1" parent="1" source="qJSmPJL1LaiND0N-NlER-14">
          <mxGeometry relative="1" as="geometry">
            <mxPoint x="570" y="474" as="targetPoint" />
          </mxGeometry>
        </mxCell>
        <mxCell id="qJSmPJL1LaiND0N-NlER-14" value="Authenticate&lt;br&gt;/login" style="shape=ext;double=1;whiteSpace=wrap;html=1;aspect=fixed;" vertex="1" parent="1">
          <mxGeometry x="410" y="434" width="80" height="80" as="geometry" />
        </mxCell>
        <mxCell id="qJSmPJL1LaiND0N-NlER-60" value="" style="edgeStyle=orthogonalEdgeStyle;rounded=0;orthogonalLoop=1;jettySize=auto;html=1;" edge="1" parent="1" source="qJSmPJL1LaiND0N-NlER-22" target="qJSmPJL1LaiND0N-NlER-48">
          <mxGeometry relative="1" as="geometry" />
        </mxCell>
        <mxCell id="qJSmPJL1LaiND0N-NlER-70" style="edgeStyle=orthogonalEdgeStyle;rounded=0;orthogonalLoop=1;jettySize=auto;html=1;" edge="1" parent="1" source="qJSmPJL1LaiND0N-NlER-22" target="qJSmPJL1LaiND0N-NlER-68">
          <mxGeometry relative="1" as="geometry">
            <Array as="points">
              <mxPoint x="630" y="600" />
            </Array>
          </mxGeometry>
        </mxCell>
        <mxCell id="qJSmPJL1LaiND0N-NlER-75" style="edgeStyle=orthogonalEdgeStyle;rounded=0;orthogonalLoop=1;jettySize=auto;html=1;" edge="1" parent="1" source="qJSmPJL1LaiND0N-NlER-22" target="qJSmPJL1LaiND0N-NlER-74">
          <mxGeometry relative="1" as="geometry">
            <Array as="points">
              <mxPoint x="590" y="686" />
            </Array>
          </mxGeometry>
        </mxCell>
        <mxCell id="qJSmPJL1LaiND0N-NlER-83" style="edgeStyle=orthogonalEdgeStyle;rounded=0;orthogonalLoop=1;jettySize=auto;html=1;" edge="1" parent="1" source="qJSmPJL1LaiND0N-NlER-22" target="qJSmPJL1LaiND0N-NlER-77">
          <mxGeometry relative="1" as="geometry">
            <Array as="points">
              <mxPoint x="590" y="776" />
            </Array>
          </mxGeometry>
        </mxCell>
        <mxCell id="qJSmPJL1LaiND0N-NlER-88" style="edgeStyle=orthogonalEdgeStyle;rounded=0;orthogonalLoop=1;jettySize=auto;html=1;" edge="1" parent="1" source="qJSmPJL1LaiND0N-NlER-22" target="qJSmPJL1LaiND0N-NlER-87">
          <mxGeometry relative="1" as="geometry">
            <Array as="points">
              <mxPoint x="590" y="866" />
            </Array>
          </mxGeometry>
        </mxCell>
        <mxCell id="qJSmPJL1LaiND0N-NlER-22" value="API" style="outlineConnect=0;fontColor=#232F3E;gradientColor=none;fillColor=#232F3E;strokeColor=none;dashed=0;verticalLabelPosition=bottom;verticalAlign=top;align=center;html=1;fontSize=12;fontStyle=0;aspect=fixed;pointerEvents=1;shape=mxgraph.aws4.external_sdk;labelBackgroundColor=none;" vertex="1" parent="1">
          <mxGeometry x="570.0000000000002" y="434" width="68" height="78" as="geometry" />
        </mxCell>
        <mxCell id="qJSmPJL1LaiND0N-NlER-58" style="edgeStyle=orthogonalEdgeStyle;rounded=0;orthogonalLoop=1;jettySize=auto;html=1;" edge="1" parent="1" source="jZVaUwOg5UY3L9NAnvdq-74" target="jZVaUwOg5UY3L9NAnvdq-96">
          <mxGeometry relative="1" as="geometry">
            <Array as="points">
              <mxPoint x="920" y="308" />
            </Array>
          </mxGeometry>
        </mxCell>
        <mxCell id="jZVaUwOg5UY3L9NAnvdq-74" value="API GTW" style="outlineConnect=0;fontColor=#232F3E;gradientColor=#945DF2;gradientDirection=north;fillColor=#5A30B5;strokeColor=#ffffff;dashed=0;verticalLabelPosition=bottom;verticalAlign=top;align=center;html=1;fontSize=12;fontStyle=0;aspect=fixed;shape=mxgraph.aws4.resourceIcon;resIcon=mxgraph.aws4.api_gateway;labelBackgroundColor=none;" parent="1" vertex="1">
          <mxGeometry x="883" y="434" width="78" height="78" as="geometry" />
        </mxCell>
        <mxCell id="qJSmPJL1LaiND0N-NlER-31" value="" style="edgeStyle=orthogonalEdgeStyle;rounded=0;orthogonalLoop=1;jettySize=auto;html=1;" edge="1" parent="1" source="jZVaUwOg5UY3L9NAnvdq-76" target="qJSmPJL1LaiND0N-NlER-12">
          <mxGeometry relative="1" as="geometry">
            <mxPoint x="452" y="308" as="sourcePoint" />
            <mxPoint x="628" y="151" as="targetPoint" />
            <Array as="points" />
          </mxGeometry>
        </mxCell>
        <mxCell id="qJSmPJL1LaiND0N-NlER-38" value="" style="edgeStyle=orthogonalEdgeStyle;rounded=0;orthogonalLoop=1;jettySize=auto;html=1;" edge="1" parent="1" source="qJSmPJL1LaiND0N-NlER-12" target="jZVaUwOg5UY3L9NAnvdq-96">
          <mxGeometry relative="1" as="geometry" />
        </mxCell>
        <mxCell id="qJSmPJL1LaiND0N-NlER-12" value="User Credentials" style="shape=ext;double=1;whiteSpace=wrap;html=1;aspect=fixed;" vertex="1" parent="1">
          <mxGeometry x="530" y="268" width="80" height="80" as="geometry" />
        </mxCell>
        <mxCell id="qJSmPJL1LaiND0N-NlER-37" value="" style="edgeStyle=orthogonalEdgeStyle;rounded=0;orthogonalLoop=1;jettySize=auto;html=1;" edge="1" parent="1" source="jZVaUwOg5UY3L9NAnvdq-76" target="qJSmPJL1LaiND0N-NlER-36">
          <mxGeometry relative="1" as="geometry">
            <mxPoint x="100" y="390" as="targetPoint" />
            <mxPoint x="426" y="282" as="sourcePoint" />
            <Array as="points">
              <mxPoint x="426" y="180" />
            </Array>
          </mxGeometry>
        </mxCell>
        <mxCell id="qJSmPJL1LaiND0N-NlER-36" value="User Exists Exception" style="rhombus;whiteSpace=wrap;html=1;" vertex="1" parent="1">
          <mxGeometry x="232" y="130" width="110" height="100" as="geometry" />
        </mxCell>
        <mxCell id="qJSmPJL1LaiND0N-NlER-51" style="edgeStyle=orthogonalEdgeStyle;rounded=0;orthogonalLoop=1;jettySize=auto;html=1;" edge="1" parent="1" source="qJSmPJL1LaiND0N-NlER-48" target="jZVaUwOg5UY3L9NAnvdq-74">
          <mxGeometry relative="1" as="geometry" />
        </mxCell>
        <mxCell id="qJSmPJL1LaiND0N-NlER-48" value="Find CEP&lt;br&gt;Method" style="shape=ext;double=1;whiteSpace=wrap;html=1;aspect=fixed;" vertex="1" parent="1">
          <mxGeometry x="718" y="433" width="80" height="80" as="geometry" />
        </mxCell>
        <mxCell id="qJSmPJL1LaiND0N-NlER-67" value="" style="edgeStyle=orthogonalEdgeStyle;rounded=0;orthogonalLoop=1;jettySize=auto;html=1;" edge="1" parent="1" source="qJSmPJL1LaiND0N-NlER-55" target="qJSmPJL1LaiND0N-NlER-66">
          <mxGeometry relative="1" as="geometry" />
        </mxCell>
        <mxCell id="qJSmPJL1LaiND0N-NlER-55" value="&amp;nbsp;&lt;br&gt;&amp;nbsp; &amp;nbsp;&lt;br&gt;&lt;div&gt;&lt;span style=&quot;background-color: initial;&quot;&gt;&amp;nbsp; &lt;br&gt;&amp;nbsp;Api&amp;nbsp; &amp;nbsp; &amp;nbsp; &amp;nbsp; &amp;nbsp; &amp;nbsp;Image&lt;/span&gt;&lt;/div&gt;&lt;div&gt;&amp;nbsp;CEP&amp;nbsp; &amp;nbsp; &amp;nbsp; &amp;nbsp; &amp;nbsp;Docker&lt;br&gt;&amp;nbsp; &amp;nbsp; &amp;nbsp; &amp;nbsp; &amp;nbsp; &amp;nbsp; &amp;nbsp; &amp;nbsp; &amp;nbsp; Wiremock&lt;/div&gt;" style="html=1;whiteSpace=wrap;shape=isoCube2;backgroundOutline=1;isoAngle=15;" vertex="1" parent="1">
          <mxGeometry x="1020" y="242" width="135" height="132" as="geometry" />
        </mxCell>
        <mxCell id="qJSmPJL1LaiND0N-NlER-73" style="edgeStyle=orthogonalEdgeStyle;rounded=0;orthogonalLoop=1;jettySize=auto;html=1;" edge="1" parent="1" source="qJSmPJL1LaiND0N-NlER-66" target="jZVaUwOg5UY3L9NAnvdq-77">
          <mxGeometry relative="1" as="geometry">
            <Array as="points">
              <mxPoint x="1303" y="110" />
            </Array>
          </mxGeometry>
        </mxCell>
        <mxCell id="qJSmPJL1LaiND0N-NlER-66" value="LogService" style="whiteSpace=wrap;html=1;" vertex="1" parent="1">
          <mxGeometry x="1242.5" y="278" width="120" height="60" as="geometry" />
        </mxCell>
        <mxCell id="qJSmPJL1LaiND0N-NlER-72" style="edgeStyle=orthogonalEdgeStyle;rounded=0;orthogonalLoop=1;jettySize=auto;html=1;" edge="1" parent="1" source="qJSmPJL1LaiND0N-NlER-68" target="jZVaUwOg5UY3L9NAnvdq-77">
          <mxGeometry relative="1" as="geometry">
            <Array as="points">
              <mxPoint x="1200" y="596" />
              <mxPoint x="1200" y="109" />
            </Array>
          </mxGeometry>
        </mxCell>
        <mxCell id="qJSmPJL1LaiND0N-NlER-68" value="Find Users Method" style="outlineConnect=0;fontColor=#232F3E;gradientColor=#945DF2;gradientDirection=north;fillColor=#5A30B5;strokeColor=#ffffff;dashed=0;verticalLabelPosition=bottom;verticalAlign=top;align=center;html=1;fontSize=12;fontStyle=0;aspect=fixed;shape=mxgraph.aws4.resourceIcon;resIcon=mxgraph.aws4.elasticsearch_service;labelBackgroundColor=none;" vertex="1" parent="1">
          <mxGeometry x="733" y="570" width="52" height="52" as="geometry" />
        </mxCell>
        <mxCell id="qJSmPJL1LaiND0N-NlER-76" style="edgeStyle=orthogonalEdgeStyle;rounded=0;orthogonalLoop=1;jettySize=auto;html=1;" edge="1" parent="1" source="qJSmPJL1LaiND0N-NlER-74" target="jZVaUwOg5UY3L9NAnvdq-77">
          <mxGeometry relative="1" as="geometry">
            <Array as="points">
              <mxPoint x="1200" y="686" />
              <mxPoint x="1200" y="109" />
            </Array>
          </mxGeometry>
        </mxCell>
        <mxCell id="qJSmPJL1LaiND0N-NlER-74" value="Find Log By Cep" style="outlineConnect=0;fontColor=#232F3E;gradientColor=#945DF2;gradientDirection=north;fillColor=#5A30B5;strokeColor=#ffffff;dashed=0;verticalLabelPosition=bottom;verticalAlign=top;align=center;html=1;fontSize=12;fontStyle=0;aspect=fixed;shape=mxgraph.aws4.resourceIcon;resIcon=mxgraph.aws4.elasticsearch_service;labelBackgroundColor=none;" vertex="1" parent="1">
          <mxGeometry x="733" y="660" width="52" height="52" as="geometry" />
        </mxCell>
        <mxCell id="qJSmPJL1LaiND0N-NlER-82" style="edgeStyle=orthogonalEdgeStyle;rounded=0;orthogonalLoop=1;jettySize=auto;html=1;" edge="1" parent="1" source="qJSmPJL1LaiND0N-NlER-77" target="jZVaUwOg5UY3L9NAnvdq-77">
          <mxGeometry relative="1" as="geometry">
            <Array as="points">
              <mxPoint x="1200" y="780" />
              <mxPoint x="1200" y="109" />
            </Array>
          </mxGeometry>
        </mxCell>
        <mxCell id="qJSmPJL1LaiND0N-NlER-77" value="Find Log By Cep" style="outlineConnect=0;fontColor=#232F3E;gradientColor=#945DF2;gradientDirection=north;fillColor=#5A30B5;strokeColor=#ffffff;dashed=0;verticalLabelPosition=bottom;verticalAlign=top;align=center;html=1;fontSize=12;fontStyle=0;aspect=fixed;shape=mxgraph.aws4.resourceIcon;resIcon=mxgraph.aws4.elasticsearch_service;labelBackgroundColor=none;" vertex="1" parent="1">
          <mxGeometry x="732" y="750" width="52" height="52" as="geometry" />
        </mxCell>
        <mxCell id="qJSmPJL1LaiND0N-NlER-80" value="Save Logs&lt;br&gt;CEP" style="html=1;whiteSpace=wrap;aspect=fixed;shape=isoRectangle;" vertex="1" parent="1">
          <mxGeometry x="1227.5" y="64" width="150" height="90" as="geometry" />
        </mxCell>
        <mxCell id="qJSmPJL1LaiND0N-NlER-84" value="" style="group" vertex="1" connectable="0" parent="1">
          <mxGeometry x="520" y="460" width="21" height="26" as="geometry" />
        </mxCell>
        <mxCell id="qJSmPJL1LaiND0N-NlER-85" value="" style="rounded=0;whiteSpace=wrap;html=1;labelBackgroundColor=#ffffff;fontSize=14;align=center;strokeColor=none;" vertex="1" parent="qJSmPJL1LaiND0N-NlER-84">
          <mxGeometry width="21" height="26" as="geometry" />
        </mxCell>
        <mxCell id="qJSmPJL1LaiND0N-NlER-86" value="" style="outlineConnect=0;fontColor=#232F3E;gradientColor=none;fillColor=#B3B3B3;strokeColor=none;dashed=0;verticalLabelPosition=bottom;verticalAlign=top;align=center;html=1;fontSize=12;fontStyle=0;aspect=fixed;pointerEvents=1;shape=mxgraph.aws4.encrypted_data;labelBackgroundColor=#ffffff;" vertex="1" parent="qJSmPJL1LaiND0N-NlER-84">
          <mxGeometry width="21" height="26" as="geometry" />
        </mxCell>
        <mxCell id="qJSmPJL1LaiND0N-NlER-89" style="edgeStyle=orthogonalEdgeStyle;rounded=0;orthogonalLoop=1;jettySize=auto;html=1;" edge="1" parent="1" source="qJSmPJL1LaiND0N-NlER-87" target="jZVaUwOg5UY3L9NAnvdq-77">
          <mxGeometry relative="1" as="geometry">
            <Array as="points">
              <mxPoint x="1200" y="866" />
              <mxPoint x="1200" y="109" />
            </Array>
          </mxGeometry>
        </mxCell>
        <mxCell id="qJSmPJL1LaiND0N-NlER-87" value="Find Log By User" style="outlineConnect=0;fontColor=#232F3E;gradientColor=#945DF2;gradientDirection=north;fillColor=#5A30B5;strokeColor=#ffffff;dashed=0;verticalLabelPosition=bottom;verticalAlign=top;align=center;html=1;fontSize=12;fontStyle=0;aspect=fixed;shape=mxgraph.aws4.resourceIcon;resIcon=mxgraph.aws4.elasticsearch_service;labelBackgroundColor=none;" vertex="1" parent="1">
          <mxGeometry x="733" y="840" width="52" height="52" as="geometry" />
        </mxCell>
      </root>
    </mxGraphModel>
  </diagram>
</mxfile>
